<svg width="680" height="320" xmlns="http://www.w3.org/2000/svg">
<defs>
  <marker id="arrow" markerWidth="8" markerHeight="8" refX="6" refY="3" orient="auto">
    <path d="M0,0 L0,6 L8,3 z" fill="#666"/>
  </marker>
</defs>
<rect width="680" height="320" fill="#f8f9fa" rx="12"/>
<text x="340" y="28" text-anchor="middle" font-size="15" font-weight="bold" font-family="sans-serif" fill="#222">RiRi — 4-Tier Brain Fallback Chain</text>
<rect x="20" y="50" width="120" height="50" rx="8" fill="#6c757d" stroke="#2c5f8a" stroke-width="1.5"/>
<text x="80" y="75" text-anchor="middle" font-family="monospace" font-size="12" fill="white">User Query</text>
<rect x="200" y="50" width="130" height="50" rx="8" fill="#0d6efd" stroke="#2c5f8a" stroke-width="1.5"/>
<text x="265" y="75" text-anchor="middle" font-family="monospace" font-size="12" fill="white">RiRi Overlay</text>
<rect x="390" y="40" width="120" height="35" rx="8" fill="#198754" stroke="#2c5f8a" stroke-width="1.5"/>
<text x="450" y="48" text-anchor="middle" font-family="monospace" font-size="12" fill="white">Tier 1: Ollama</text><text x="450" y="66" text-anchor="middle" font-family="monospace" font-size="12" fill="white">gemma3:4b</text>
<rect x="390" y="90" width="120" height="35" rx="8" fill="#0d6efd" stroke="#2c5f8a" stroke-width="1.5"/>
<text x="450" y="107" text-anchor="middle" font-family="monospace" font-size="12" fill="white">Tier 2: Gemini CLI</text>
<rect x="390" y="140" width="120" height="35" rx="8" fill="#fd7e14" stroke="#2c5f8a" stroke-width="1.5"/>
<text x="450" y="157" text-anchor="middle" font-family="monospace" font-size="12" fill="white">Tier 3: Groq API</text>
<rect x="390" y="190" width="120" height="35" rx="8" fill="#dc3545" stroke="#2c5f8a" stroke-width="1.5"/>
<text x="450" y="207" text-anchor="middle" font-family="monospace" font-size="12" fill="white">Tier 4: OpenAI</text>
<rect x="180" y="200" width="130" height="50" rx="8" fill="#6f42c1" stroke="#2c5f8a" stroke-width="1.5"/>
<text x="245" y="216" text-anchor="middle" font-family="monospace" font-size="12" fill="white">Memory DB</text><text x="245" y="234" text-anchor="middle" font-family="monospace" font-size="12" fill="white">(SQLite+Embeddings)</text>
<rect x="20" y="200" width="130" height="50" rx="8" fill="#20c997" stroke="#2c5f8a" stroke-width="1.5"/>
<text x="85" y="216" text-anchor="middle" font-family="monospace" font-size="12" fill="white">ChromaDB</text><text x="85" y="234" text-anchor="middle" font-family="monospace" font-size="12" fill="white">(Tool Hints)</text>
<line x1="140" y1="75" x2="200" y2="75" stroke="#666" stroke-width="1.5" marker-end="url(#arrow)"/>

<line x1="330" y1="75" x2="390" y2="57" stroke="#666" stroke-width="1.5" marker-end="url(#arrow)"/>

<line x1="330" y1="75" x2="390" y2="107" stroke="#666" stroke-width="1.5" marker-end="url(#arrow)"/>

<line x1="330" y1="75" x2="390" y2="157" stroke="#666" stroke-width="1.5" marker-end="url(#arrow)"/>

<line x1="330" y1="75" x2="390" y2="207" stroke="#666" stroke-width="1.5" marker-end="url(#arrow)"/>

<line x1="200" y1="225" x2="180" y2="225" stroke="#666" stroke-width="1.5" marker-end="url(#arrow)"/>

<line x1="150" y1="225" x2="180" y2="225" stroke="#666" stroke-width="1.5" marker-end="url(#arrow)"/>

<text x="340" y="305" text-anchor="middle" font-size="10" fill="#888">Green=local free · Blue=gemini free · Amber=groq cheap · Red=openai fallback</text>
</svg>